<?xml version="1.0" standalone="no"?>
<!DOCTYPE svg PUBLIC "-//W3C//DTD SVG 20010904//EN"
 "http://www.w3.org/TR/2001/REC-SVG-20010904/DTD/svg10.dtd">
<svg version="1.0" xmlns="http://www.w3.org/2000/svg"
 width="328.000000pt" height="320.000000pt" viewBox="0 0 328.000000 320.000000"
 preserveAspectRatio="xMidYMid meet">

<g transform="translate(0.000000,320.000000) scale(0.100000,-0.100000)"
fill="#000000" stroke="none">
<path d="M1593 2830 c-231 -61 -429 -261 -488 -495 -19 -76 -19 -234 0 -310
59 -234 245 -422 475 -481 124 -31 274 -1 322 66 17 23 17 29 4 75 -9 27 -14
50 -13 50 121 70 196 168 232 306 15 56 18 185 6 229 -10 38 -50 37 -134 -3
-84 -39 -145 -97 -181 -169 -20 -40 -27 -47 -31 -32 -15 46 -60 132 -88 168
-39 49 -130 109 -193 126 -69 20 -77 6 -71 -135 2 -60 5 -116 8 -124 3 -10
-15 -17 -68 -26 -108 -19 -108 -18 -63 -114 38 -80 143 -187 221 -224 105 -52
170 -56 320 -21 22 5 26 1 37 -32 9 -31 9 -42 -3 -61 -38 -58 -185 -89 -296
-63 -132 31 -282 145 -357 272 -113 191 -121 425 -21 628 80 160 249 295 425
336 103 24 277 15 366 -18 189 -71 325 -207 396 -396 33 -87 42 -272 19 -372
-17 -73 -15 -95 3 -29 50 183 26 378 -66 544 -44 80 -176 204 -264 248 -153
76 -341 98 -497 57z m-58 -509 c129 -60 208 -168 230 -315 l7 -49 -43 36 c-58
50 -111 74 -196 88 -67 11 -71 13 -77 42 -8 39 -8 181 0 201 8 21 30 20 79 -3z
m557 -216 c-16 -110 -65 -207 -138 -274 -31 -28 -61 -51 -68 -51 -7 0 -22 19
-34 43 -11 23 -29 54 -38 69 -17 25 -17 29 9 108 44 133 100 196 213 240 l49
18 9 -36 c6 -24 5 -65 -2 -117z m-612 -96 c13 -28 28 -53 33 -56 5 -3 1 9 -7
26 -9 17 -21 43 -27 57 l-10 27 53 -6 c85 -10 144 -35 198 -84 44 -39 50 -50
50 -84 0 -21 5 -39 10 -39 6 0 10 7 10 16 0 25 19 6 45 -46 14 -27 25 -51 25
-53 0 -6 -77 -25 -120 -30 -53 -7 -147 11 -199 37 -66 34 -138 101 -183 170
-51 80 -50 93 10 101 26 4 52 8 57 10 25 9 33 2 55 -46z"/>
<path d="M1520 1936 c0 -2 8 -10 18 -17 15 -13 16 -12 3 4 -13 16 -21 21 -21
13z"/>
<path d="M1771 2406 c-30 -32 -38 -94 -17 -134 9 -18 19 -32 22 -32 2 0 0 9
-6 19 -36 69 28 183 74 132 25 -28 30 -75 12 -113 l-16 -33 25 28 c31 34 32
80 5 125 -25 40 -66 44 -99 8z"/>
<path d="M672 1267 c-27 -29 -30 -91 -4 -112 9 -8 42 -32 72 -53 59 -40 72
-69 45 -96 -23 -23 -81 -20 -105 4 -11 11 -20 25 -20 30 0 6 -4 10 -10 10 -15
0 -12 -46 3 -58 22 -19 93 -25 131 -12 43 14 66 44 66 85 0 40 -11 53 -86 103
-68 45 -79 61 -59 88 18 25 83 24 101 -1 13 -18 14 -17 14 8 0 26 -1 27 -63
27 -53 0 -67 -4 -85 -23z"/>
<path d="M971 1162 c-29 -70 -62 -139 -73 -154 l-19 -28 31 0 c17 0 29 4 25
10 -3 5 1 25 9 45 14 34 17 35 66 35 46 0 52 -3 62 -27 6 -16 10 -36 10 -45
-1 -15 8 -18 50 -18 39 0 48 3 40 13 -6 6 -38 73 -72 147 -33 74 -64 138 -68
142 -4 3 -31 -51 -61 -120z m63 -25 c9 -23 16 -46 16 -50 0 -4 -18 -7 -40 -7
-22 0 -40 3 -40 7 0 16 33 93 40 93 4 0 15 -19 24 -43z"/>
<path d="M1240 1142 c0 -111 -3 -152 -12 -155 -7 -3 11 -6 41 -6 45 -1 52 1
42 13 -8 9 -11 46 -9 102 l3 88 111 -106 110 -106 -4 118 c-5 138 1 187 26
193 9 3 -14 5 -53 5 -38 0 -63 -2 -54 -5 10 -2 20 -14 23 -26 10 -36 7 -169
-3 -165 -6 2 -57 47 -115 101 l-106 98 0 -149z"/>
<path d="M1724 1277 c16 -11 17 -30 14 -179 -3 -146 -5 -168 -22 -187 -19 -21
-19 -21 2 -21 12 0 36 13 54 29 l33 29 3 159 c3 132 6 160 20 171 13 10 4 12
-53 12 -59 0 -66 -2 -51 -13z"/>
<path d="M1893 1279 c15 -9 17 -26 17 -123 0 -99 3 -117 21 -139 37 -48 146
-59 205 -21 32 22 44 71 44 186 0 68 4 98 13 101 6 3 -8 6 -32 6 -39 1 -43 -1
-27 -12 16 -12 17 -27 14 -126 -3 -109 -4 -114 -31 -137 -38 -33 -86 -32 -118
2 -22 23 -24 35 -27 137 -3 97 -2 112 14 124 15 11 9 13 -47 13 -48 -1 -60 -3
-46 -11z"/>
<path d="M2346 1259 c-60 -141 -118 -264 -128 -271 -8 -5 -1 -8 19 -8 24 0 32
4 31 18 0 9 4 29 10 45 10 24 16 27 62 27 49 0 52 -1 66 -35 8 -20 12 -40 9
-45 -4 -6 17 -10 51 -10 48 0 55 2 43 13 -9 6 -44 75 -79 152 -35 77 -65 142
-66 144 -2 2 -10 -11 -18 -30z m33 -166 c1 -9 -14 -13 -40 -13 -45 0 -45 0
-12 79 l15 36 19 -45 c10 -25 18 -51 18 -57z"/>
<path d="M2568 1136 l-3 -156 43 0 c39 0 42 2 32 19 -11 22 -14 181 -3 181 4
0 54 -46 112 -102 l106 -103 3 145 c2 122 5 147 19 158 14 10 7 12 -46 12 -57
0 -61 -1 -47 -16 12 -12 16 -36 16 -100 0 -46 -4 -84 -8 -84 -5 0 -17 10 -28
21 -10 12 -58 57 -106 101 l-87 79 -3 -155z"/>
</g>
</svg>
